<svg width="80" height="80" viewBox="0 0 80 80" fill="none" xmlns="http://www.w3.org/2000/svg">
<path d="M39.9939 79.9389C62.0685 79.9389 79.9634 62.044 79.9634 39.9695C79.9634 17.8949 62.0685 0 39.9939 0C17.9194 0 0.0244675 17.8949 0.0244675 39.9695C0.0244675 62.044 17.9194 79.9389 39.9939 79.9389Z" fill="#13B3CA"/>
<path d="M68.2685 11.7655C83.8776 27.3746 83.8783 52.6829 68.2679 68.2932C52.6581 83.9022 27.3493 83.9022 11.7402 68.2932L68.2685 11.7655Z" fill="#10ABB6"/>
<path d="M79.7047 44.4713L50.792 15.558L35.7805 30.5694L36.6748 31.4637L28.128 40.0098L35.1235 47.0053L34.2034 47.9249L41.777 55.4984L33.0458 64.2295L47.9613 79.145C64.7809 75.7412 77.7639 61.7769 79.7047 44.4713Z" fill="#13B3CA"/>
<path d="M33.006 25.1215C33.006 26.3477 33.006 31.8246 33.006 31.8246H28.0951V40.0218H33.006V64.3783H43.0939V40.0218H49.8634C49.8634 40.0218 50.4976 36.0905 50.8044 31.7938C49.9233 31.7938 43.1324 31.7938 43.1324 31.7938C43.1324 31.7938 43.1324 27.0244 43.1324 26.1887C43.1324 25.3517 44.2318 24.2251 45.3192 24.2251C46.4048 24.2251 48.6952 24.2251 50.8157 24.2251C50.8157 23.108 50.8157 19.2525 50.8157 15.6917C47.9844 15.6917 44.7633 15.6917 43.3426 15.6917C32.7562 15.6912 33.006 23.8959 33.006 25.1215Z" fill="white"/>
</svg>
