<svg width="80" height="80" viewBox="0 0 80 80" fill="none" xmlns="http://www.w3.org/2000/svg">
<g opacity="0.8" clip-path="url(#clip0)">
<path d="M39.9998 0C62.0897 0 80 17.91 80 40.0001C80 62.0903 62.09 80 40.0001 80C17.9102 80 -1.52588e-05 62.09 -1.52588e-05 40.0001C-1.52588e-05 17.9103 17.9075 0 39.9998 0Z" fill="#13B3CA"/>
<path d="M53.8049 17.4951H26.1926C21.3951 17.4951 17.4951 21.3976 17.4951 26.1926V53.8077C17.4951 58.6052 21.3976 62.5052 26.1926 62.5052H53.8077C58.6052 62.5052 62.5052 58.6027 62.5052 53.8077V26.1926C62.505 21.3976 58.6024 17.4951 53.8049 17.4951ZM56.545 22.5276L57.5301 22.5251V29.9952L50.0051 30.0202L49.9801 22.5501L56.545 22.5276ZM40.0002 32.47C46.2427 32.47 47.53 38.3299 47.53 40.0023C47.53 44.1498 44.1501 47.5298 40.0002 47.5298C35.8477 47.5298 32.4703 44.1498 32.4703 40.0023C32.4675 38.3299 33.7576 32.47 40.0002 32.47ZM57.5726 53.2626C57.5726 55.6402 55.6402 57.5751 53.2576 57.5751H26.6575C24.2775 57.5751 22.3425 55.6427 22.3425 53.2626V34.9901H28.5924C28.0125 36.4175 27.6849 38.3676 27.6849 40.0026C27.6849 46.7878 33.2048 52.3102 39.9925 52.3102C46.7801 52.3102 52.2973 46.7878 52.2973 40.0026C52.2973 38.3676 51.9697 36.4175 51.3922 34.9901H57.5672V53.2626H57.5726Z" fill="white"/>
</g>
<defs>
<clipPath id="clip0">
<rect width="80" height="80" fill="white"/>
</clipPath>
</defs>
</svg>
