<svg width="182" height="200" viewBox="0 0 182 200" fill="none" xmlns="http://www.w3.org/2000/svg">
<g opacity="0.15">
<path d="M181.853 0H149.322L95.1031 66.6667C91.5862 70.5314 91.5862 76.6506 95.1031 80.5153L109.464 96.2963C112.981 100.161 118.549 100.161 122.066 96.2963L181.853 37.6812V0Z" fill="#2FD0A0"/>
<path d="M95.3961 83.0918L109.757 96.2963C113.274 100.161 118.842 100.161 122.359 96.2963L181.853 37.6812V0H149.615" fill="#78F3D6"/>
<path d="M109.464 96.6184C112.981 100.483 118.549 100.483 122.066 96.6184L181.853 37.6812V0" fill="#199A7B"/>
<path d="M94.81 101.449L74.5878 123.672C76.6393 128.18 76.0531 133.655 72.5362 137.198C68.4332 141.707 61.6924 141.707 57.5894 137.198C53.4863 132.689 53.4863 125.282 57.5894 120.773C60.8132 117.23 65.7955 116.586 69.8986 118.841L90.1208 96.6184L79.8631 85.3462L40.8841 104.026L10.4042 189.372L88.3623 155.878L105.361 113.043L94.81 101.449Z" fill="#FCE95E"/>
<path d="M82.9705 78.5763L111.154 109.547L126.489 92.6956L98.3056 61.7246L82.9705 78.5763Z" fill="#045A89"/>
<path d="M89.1269 85.1687L111.093 109.308L126.428 92.456L104.462 68.317L89.1269 85.1687Z" fill="#074568"/>
<path d="M94.81 101.449L74.5878 123.672C76.6393 128.18 76.0531 133.655 72.5362 137.198C68.4332 141.707 61.6924 141.707 57.5894 137.198C53.4863 132.689 53.4863 125.282 57.5894 120.773C60.8132 117.23 65.7955 116.586 69.8986 118.841L90.1208 96.6184L79.8631 85.3462L10.4042 189.372L88.3623 155.878L105.361 113.043L94.81 101.449Z" fill="#F4CD27"/>
<path d="M10.4042 189.372L88.3623 155.878L105.361 113.043" fill="#EDB811"/>
<path d="M57.8825 137.198C53.7794 132.689 53.7794 125.282 57.8825 120.773C53.7794 125.282 51.4348 135.266 55.5379 139.775C59.6409 144.283 68.7263 141.707 72.8293 137.198C68.7263 141.707 61.9855 141.707 57.8825 137.198Z" fill="#EDB811"/>
<path d="M69.8986 118.841L73.1224 115.298C68.1401 114.01 60.8132 117.552 57.5894 121.095C61.1063 117.23 66.0886 116.586 69.8986 118.841Z" fill="#FCE95E"/>
<path d="M74.5878 123.671C76.6393 128.18 76.0531 133.655 72.5362 137.198C75.7601 133.655 78.9839 125.282 77.8116 120.129L74.5878 123.671Z" fill="#FCE95E"/>
<path d="M4.2496 200C6.51565 200 8.35266 197.981 8.35266 195.491C8.35266 193.001 6.51565 190.982 4.2496 190.982C1.98354 190.982 0.146538 193.001 0.146538 195.491C0.146538 197.981 1.98354 200 4.2496 200Z" fill="#DB6309"/>
<path d="M14.8003 196.457H112.688C112.688 196.457 178.63 198.39 150.494 181.965C121.187 164.895 157.235 149.758 157.235 149.758" fill="#C9D6D6"/>
</g>
</svg>
