<svg width="80" height="80" viewBox="0 0 80 80" fill="none" xmlns="http://www.w3.org/2000/svg">
<path d="M40 80C62.0914 80 80 62.0914 80 40C80 17.9086 62.0914 0 40 0C17.9086 0 0 17.9086 0 40C0 62.0914 17.9086 80 40 80Z" fill="#13B3CA"/>
<path d="M68.2805 11.7165C83.8997 27.335 83.9009 52.6594 68.2798 68.2798C52.6606 83.8997 27.335 83.8997 11.7165 68.281L68.2805 11.7165Z" fill="#10ABB6"/>
<path d="M79.6312 45.3268L68.8216 34.5172L67.9304 35.4076L54.3131 21.7909L53.6071 22.4964L51.9727 20.862L49.9759 22.8588L48.358 21.2414L45.7555 23.8432L48.9314 27.0186L36.7362 39.215L24.8512 27.3313L22.2493 29.9324L25.6746 33.3572L23.2642 35.7671L27.1966 39.6996L25.4631 41.4331L30.2538 46.2244L29.472 47.0068L33.8693 51.4047L28.7041 56.5706L24.8562 52.7234L21.1398 56.4398L16.5286 51.8279L15.6015 52.7556L42.7382 79.8923C61.7702 78.6025 77.1418 64.0063 79.6312 45.3268Z" fill="#13B3CA"/>
<path d="M62.5287 38.2766C65.7254 38.0134 67.8928 36.5595 68.7276 34.5879C67.5738 35.2964 63.9945 36.0687 62.0178 35.3325C61.9212 34.8691 61.8132 34.4269 61.7071 34.0298C60.2009 28.4984 55.044 24.0437 49.6407 24.5811C50.0777 24.4049 50.5224 24.24 50.9637 24.093C51.558 23.8795 55.0477 23.3113 54.4989 22.0797C54.0354 20.9967 49.772 22.8988 48.9693 23.1476C50.0291 22.7491 51.7815 22.0632 51.9685 20.8456C50.3448 21.0679 48.7514 21.8358 47.5207 22.9524C47.9646 22.4731 48.302 21.8902 48.3739 21.2625C44.0423 24.0286 41.5126 29.6054 39.4663 35.0156C37.8591 33.4583 36.4345 32.2313 35.1557 31.5505C31.5706 29.627 27.2839 27.6206 20.5545 25.1229C20.3479 27.349 21.6553 30.3102 25.4228 32.2786C24.6063 32.1694 23.1153 32.4138 21.9197 32.6992C22.4066 35.2498 23.9936 37.3509 28.2948 38.3676C26.3296 38.4971 25.3141 38.9441 24.394 39.9078C25.2876 41.6818 27.4719 43.7696 31.3988 43.3407C27.0331 45.2225 29.6197 48.7098 33.1733 48.1894C27.1107 54.4515 17.5522 53.9917 12.0636 48.7547C26.3939 68.2817 57.5458 60.3025 62.1862 41.4942C65.6647 41.5232 67.7094 40.2893 68.9768 38.929C66.9725 39.2694 64.0682 38.9182 62.5287 38.2766Z" fill="white"/>
</svg>
